<svg xmlns="http://www.w3.org/2000/svg" width="20" height="15" viewBox="0 0 20 15">
  <path id="Mail" d="M18.122,8H1.871A1.875,1.875,0,0,0,0,9.875v11.25A1.875,1.875,0,0,0,1.871,23h16.25A1.875,1.875,0,0,0,20,21.125V9.875A1.875,1.875,0,0,0,18.122,8Zm1.25,12.847L13.46,14.935l5.912-3.767ZM1.871,8.625h16.25a1.251,1.251,0,0,1,1.25,1.25v.552l-8.6,5.483a1.377,1.377,0,0,1-1.515-.022L.621,10.022V9.875A1.251,1.251,0,0,1,1.871,8.625ZM.621,10.777l5.995,4.075-5.995,6Zm17.5,11.6H1.871a1.251,1.251,0,0,1-1.149-.759L7.134,15.2,8.9,16.4a2,2,0,0,0,2.2.032l1.826-1.163,6.342,6.343A1.251,1.251,0,0,1,18.122,22.375Z" transform="translate(0.003 -8)"/>
</svg>
