<svg xmlns="http://www.w3.org/2000/svg" width="15" height="18" viewBox="0 0 15 18">
  <path id="location_1_" d="M12.14,18.64a.254.254,0,0,1-.16-.055C11.68,18.344,4.64,12.6,4.64,7.3,4.64,3.626,8,.64,12.14.64s7.5,2.986,7.5,6.656c0,4.721-7.033,11.016-7.332,11.282A.254.254,0,0,1,12.14,18.64Zm0-17.578c-3.873,0-7.025,2.8-7.025,6.234,0,4.676,5.937,9.922,7.017,10.837,1.064-.982,7.032-6.675,7.032-10.837C19.165,3.859,16.013,1.062,12.14,1.062Zm0,8.789A2.734,2.734,0,0,1,9.261,7.3,2.734,2.734,0,0,1,12.14,4.742,2.734,2.734,0,0,1,15.019,7.3,2.734,2.734,0,0,1,12.14,9.851Zm0-4.688A2.283,2.283,0,0,0,9.737,7.3a2.283,2.283,0,0,0,2.4,2.133,2.283,2.283,0,0,0,2.4-2.133A2.283,2.283,0,0,0,12.14,5.163Z" transform="translate(-4.64 -0.64)"/>
</svg>
