<svg xmlns="http://www.w3.org/2000/svg" width="15" height="15" viewBox="0 0 15 15">
  <g id="phone-call-svgrepo-com" transform="translate(0 -0.229)">
    <g id="Group_1" data-name="Group 1" transform="translate(0 0.229)">
      <path id="Path_1" data-name="Path 1" d="M14.664,12.093,12.347,9.771a1.206,1.206,0,0,0-1.7.032l-1.167,1.17-.23-.129A11.615,11.615,0,0,1,6.44,8.81,11.7,11.7,0,0,1,4.405,5.991c-.043-.078-.085-.154-.126-.225l.783-.784L5.448,4.6a1.211,1.211,0,0,0,.031-1.707L3.163.566A1.2,1.2,0,0,0,1.46.6l-.653.658.018.018a3.781,3.781,0,0,0-.538.951,3.949,3.949,0,0,0-.24.965c-.306,2.542.853,4.864,4,8.017,4.347,4.357,7.85,4.028,8,4.011a3.9,3.9,0,0,0,.965-.243,3.761,3.761,0,0,0,.945-.537l.014.012.661-.649A1.213,1.213,0,0,0,14.664,12.093Zm-.545,1.192-.291.292-.116.112a2.913,2.913,0,0,1-.961.607,3.221,3.221,0,0,1-.784.2c-.033,0-3.328.285-7.406-3.8C1.092,7.216.536,5.213.769,3.274a3.216,3.216,0,0,1,.2-.786,2.96,2.96,0,0,1,.606-.966l.4-.408a.478.478,0,0,1,.675-.032L4.965,3.4a.483.483,0,0,1-.031.678L3.369,5.647l.144.244c.08.136.165.288.256.453A12.3,12.3,0,0,0,5.926,9.325a12.272,12.272,0,0,0,2.969,2.157c.167.093.32.178.457.26l.244.145,1.563-1.567a.481.481,0,0,1,.677-.032l2.315,2.321A.482.482,0,0,1,14.118,13.285Z" transform="translate(0 -0.229)"/>
    </g>
  </g>
</svg>
