<svg xmlns="http://www.w3.org/2000/svg" width="104" height="80" viewBox="0 0 104 80">
  <g id="Quotemarks-left" transform="translate(-0.001 -9.412)" opacity="0.25">
    <path id="Path_53" data-name="Path 53" d="M26.53,39.187c-.228-2.461-.06-9.164,6.317-18.5a1.783,1.783,0,0,0-.2-2.257c-2.592-2.615-4.2-4.266-5.324-5.423-1.488-1.529-2.167-2.226-3.158-3.134a1.752,1.752,0,0,0-2.331-.024C10.726,19.591-1.608,39.728.173,64.408v0c1.049,14.487,11.526,25,24.913,25A25.141,25.141,0,0,0,26.53,39.187ZM25.086,85.871c-11.494,0-20.5-9.134-21.412-21.721v0c-2-27.758,14.35-45.78,19.29-50.551.483.479,1.035,1.046,1.848,1.882.975,1,2.311,2.374,4.33,4.418-7.733,12.021-6.274,20.583-5.635,21.809a1.82,1.82,0,0,0,1.579.977,21.593,21.593,0,0,1,0,43.184Z" fill="#aa8a01"/>
    <path id="Path_54" data-name="Path 54" d="M26.53,39.187c-.228-2.461-.06-9.164,6.317-18.5a1.783,1.783,0,0,0-.2-2.257c-2.592-2.615-4.2-4.266-5.324-5.423-1.488-1.529-2.167-2.226-3.158-3.134a1.752,1.752,0,0,0-2.331-.024C10.726,19.591-1.608,39.728.173,64.408v0c1.049,14.487,11.526,25,24.913,25A25.141,25.141,0,0,0,26.53,39.187ZM25.086,85.871c-11.494,0-20.5-9.134-21.412-21.721v0c-2-27.758,14.35-45.78,19.29-50.551.483.479,1.035,1.046,1.848,1.882.975,1,2.311,2.374,4.33,4.418-7.733,12.021-6.274,20.583-5.635,21.809a1.82,1.82,0,0,0,1.579.977,21.593,21.593,0,0,1,0,43.184Z" transform="translate(54)" fill="#aa8a01"/>
  </g>
</svg>
