<svg xmlns="http://www.w3.org/2000/svg" width="15" height="15" viewBox="0 0 15 15">
  <path id="search-svgrepo-com_1_" data-name="search-svgrepo-com (1)" d="M15.9,14.521l-4.37-4.376a5.82,5.82,0,0,0,1.805-4.2A6.072,6.072,0,0,0,7.16,0,6.072,6.072,0,0,0,.983,5.947,6.072,6.072,0,0,0,7.16,11.894,6.293,6.293,0,0,0,11.1,10.526l4.381,4.387a.3.3,0,0,0,.416.008A.276.276,0,0,0,15.9,14.521ZM7.16,11.328A5.494,5.494,0,0,1,1.571,5.947,5.494,5.494,0,0,1,7.16.566a5.494,5.494,0,0,1,5.588,5.381A5.494,5.494,0,0,1,7.16,11.328Z" transform="translate(-0.983)"/>
</svg>
